<svg xmlns="http://www.w3.org/2000/svg" width="152.242" height="197.669" viewBox="0 0 152.242 197.669"><defs><style>.a{opacity:0.3;}.b{fill:none;stroke:#fff;stroke-linejoin:round;stroke-width:10px;}.c{fill:#b3ff00;}.d{fill:#326e68;}.e{fill:#1a1718;}</style></defs><g transform="translate(-137.387 -56.808)"><g class="a" transform="translate(147.026 61.808)"><path class="b" d="M181.911,123.221a24.034,24.034,0,0,1,34.753,0" transform="translate(-129.783 -39.689)"/><path class="b" d="M169.585,112.656a48.07,48.07,0,0,1,69.506,0" transform="translate(-134.833 -47.062)"/><path class="b" d="M157.26,102.091a72.1,72.1,0,0,1,104.258,0" transform="translate(-139.883 -54.435)"/><path class="b" d="M144.934,91.528a96.137,96.137,0,0,1,139.011,0" transform="translate(-144.934 -61.808)"/></g><path class="c" d="M223.465,198.041H137.387V169.625l86.078-14.8Z" transform="translate(0 38.113)"/><path class="c" d="M210.341,169.856H169.417l15.466-31.94h25.459Z" transform="translate(13.124 31.185)"/><path class="d" d="M209,167.436H172.7l12.945-27.055H209Z" transform="translate(14.469 32.195)"/><circle class="d" cx="19.457" cy="19.457" r="19.457" transform="translate(153.409 215.564)"/><circle class="e" cx="16.652" cy="16.652" r="16.652" transform="translate(156.214 218.369)"/><rect class="c" width="6.818" height="9.895" transform="translate(214.123 153.462)"/><rect class="c" width="2.179" height="4.159" transform="translate(213.033 164.15)"/><rect class="c" width="2.179" height="4.159" transform="translate(219.851 164.15)"/><circle class="d" cx="1.802" cy="1.802" r="1.802" transform="translate(215.73 156.608)"/><circle class="d" cx="11.759" cy="11.759" r="11.759" transform="translate(161.107 223.262)"/><circle class="c" cx="8.641" cy="8.641" r="8.641" transform="translate(164.225 226.38)"/></g></svg>