<?xml version="1.0" encoding="UTF-8" standalone="no"?>
<svg
   xmlns:dc="http://purl.org/dc/elements/1.1/"
   xmlns:cc="http://creativecommons.org/ns#"
   xmlns:rdf="http://www.w3.org/1999/02/22-rdf-syntax-ns#"
   xmlns:svg="http://www.w3.org/2000/svg"
   xmlns="http://www.w3.org/2000/svg"
   id="svg8"
   version="1.1"
   viewBox="0 0 62.302768 16.406072"
   height="16.406071mm"
   width="62.302765mm">
  <defs
     id="defs2">
    <style
       id="style815">.a{fill:#00edae;}</style>
    <style
       id="style3650">.a{fill:#00edae;}</style>
    <style
       id="style6466">.a{fill:#1d1d1d;}</style>
    <style
       id="style6480">.a{fill:#00edae;}</style>
    <style
       id="style9296">.a{fill:#00edae;}</style>
    <style
       id="style12112">.a{fill:#1d1d1d;}</style>
    <style
       id="style14944">.a,.b,.c{fill:#fff;}.a{font-size:116px;}.a,.b{font-family:HelveticaLTStd-Bold, Helvetica LT Std;font-weight:700;letter-spacing:-0.025em;}.b{font-size:18px;}.d{fill:#1d1d1d;}.e{fill:none;stroke:#fff;stroke-linejoin:round;stroke-width:3px;}.f{filter:url(#o);}.g{filter:url(#m);}.h{filter:url(#k);}.i{filter:url(#i);}.j{filter:url(#g);}.k{filter:url(#e);}.l{filter:url(#c);}.m{filter:url(#a);}</style>
    <filter
       id="a"
       x="18"
       y="102.913"
       width="138"
       height="134"
       filterUnits="userSpaceOnUse">
      <feOffset
         input="SourceAlpha"
         id="feOffset14946" />
      <feGaussianBlur
         stdDeviation="3"
         result="b"
         id="feGaussianBlur14948" />
      <feFlood
         flood-opacity="0.102"
         id="feFlood14950" />
      <feComposite
         operator="in"
         in2="b"
         id="feComposite14952"
         result="result1" />
      <feComposite
         in="SourceGraphic"
         in2="result1"
         id="feComposite14954" />
    </filter>
    <filter
       id="c"
       x="560"
       y="102.913"
       width="146"
       height="134"
       filterUnits="userSpaceOnUse">
      <feOffset
         input="SourceAlpha"
         id="feOffset14957" />
      <feGaussianBlur
         stdDeviation="3"
         result="d"
         id="feGaussianBlur14959" />
      <feFlood
         flood-opacity="0.102"
         id="feFlood14961" />
      <feComposite
         operator="in"
         in2="d"
         id="feComposite14963"
         result="result1" />
      <feComposite
         in="SourceGraphic"
         in2="result1"
         id="feComposite14965" />
    </filter>
    <filter
       id="e"
       x="0"
       y="207.91299"
       width="174"
       height="37"
       filterUnits="userSpaceOnUse">
      <feOffset
         input="SourceAlpha"
         id="feOffset14968" />
      <feGaussianBlur
         stdDeviation="3"
         result="f"
         id="feGaussianBlur14970" />
      <feFlood
         flood-opacity="0.102"
         id="feFlood14972" />
      <feComposite
         operator="in"
         in2="f"
         id="feComposite14974"
         result="result1" />
      <feComposite
         in="SourceGraphic"
         in2="result1"
         id="feComposite14976" />
    </filter>
    <filter
       id="g"
       x="546"
       y="207.91299"
       width="174"
       height="37"
       filterUnits="userSpaceOnUse">
      <feOffset
         input="SourceAlpha"
         id="feOffset14979" />
      <feGaussianBlur
         stdDeviation="3"
         result="h"
         id="feGaussianBlur14981" />
      <feFlood
         flood-opacity="0.102"
         id="feFlood14983" />
      <feComposite
         operator="in"
         in2="h"
         id="feComposite14985"
         result="result1" />
      <feComposite
         in="SourceGraphic"
         in2="result1"
         id="feComposite14987" />
    </filter>
    <filter
       id="i"
       x="287"
       y="102.913"
       width="146"
       height="134"
       filterUnits="userSpaceOnUse">
      <feOffset
         input="SourceAlpha"
         id="feOffset14990" />
      <feGaussianBlur
         stdDeviation="3"
         result="j"
         id="feGaussianBlur14992" />
      <feFlood
         flood-opacity="0.102"
         id="feFlood14994" />
      <feComposite
         operator="in"
         in2="j"
         id="feComposite14996"
         result="result1" />
      <feComposite
         in="SourceGraphic"
         in2="result1"
         id="feComposite14998" />
    </filter>
    <filter
       id="k"
       x="839"
       y="102.913"
       width="134"
       height="134"
       filterUnits="userSpaceOnUse">
      <feOffset
         input="SourceAlpha"
         id="feOffset15001" />
      <feGaussianBlur
         stdDeviation="3"
         result="l"
         id="feGaussianBlur15003" />
      <feFlood
         flood-opacity="0.102"
         id="feFlood15005" />
      <feComposite
         operator="in"
         in2="l"
         id="feComposite15007"
         result="result1" />
      <feComposite
         in="SourceGraphic"
         in2="result1"
         id="feComposite15009" />
    </filter>
    <filter
       id="m"
       x="292"
       y="207.91299"
       width="136"
       height="37"
       filterUnits="userSpaceOnUse">
      <feOffset
         input="SourceAlpha"
         id="feOffset15012" />
      <feGaussianBlur
         stdDeviation="3"
         result="n"
         id="feGaussianBlur15014" />
      <feFlood
         flood-opacity="0.102"
         id="feFlood15016" />
      <feComposite
         operator="in"
         in2="n"
         id="feComposite15018"
         result="result1" />
      <feComposite
         in="SourceGraphic"
         in2="result1"
         id="feComposite15020" />
    </filter>
    <filter
       id="o"
       x="774"
       y="207.91299"
       width="264"
       height="37"
       filterUnits="userSpaceOnUse">
      <feOffset
         input="SourceAlpha"
         id="feOffset15023" />
      <feGaussianBlur
         stdDeviation="3"
         result="p"
         id="feGaussianBlur15025" />
      <feFlood
         flood-opacity="0.102"
         id="feFlood15027" />
      <feComposite
         operator="in"
         in2="p"
         id="feComposite15029"
         result="result1" />
      <feComposite
         in="SourceGraphic"
         in2="result1"
         id="feComposite15031" />
    </filter>
  </defs>
  <metadata
     id="metadata5">
    <rdf:RDF>
      <cc:Work
         rdf:about="">
        <dc:format>image/svg+xml</dc:format>
        <dc:type
           rdf:resource="http://purl.org/dc/dcmitype/StillImage" />
        <dc:title></dc:title>
      </cc:Work>
    </rdf:RDF>
  </metadata>
  <g
     transform="translate(162.0108,-24.209773)"
     id="layer1">
    <path
       id="path15084"
       d="m -145.58841,31.791706 c 0.99393,4.469624 3.81526,8.479949 7.61674,8.078788 3.80148,-0.401162 6.55271,-4.037262 6.70721,-7.527372 0.1545,-3.490111 -3.63306,-8.715857 -6.85986,-8.080399 -3.2268,0.635458 -8.45856,3.059415 -7.46409,7.528983 z"
       class="c"
       style="fill:#ffffff;stroke-width:0.2647222" />
    <path
       id="path15086"
       d="m -153.05942,24.874711 c -4.60983,0.574675 -8.95138,3.209925 -8.95138,7.434527 0,4.224602 3.37159,7.670535 6.87229,8.24521 3.5007,0.574675 9.1694,-2.982119 8.87227,-6.602677 -0.29713,-3.620558 -2.18334,-9.651735 -6.79318,-9.07706 z"
       class="c"
       style="fill:#ffffff;stroke-width:0.26458332" />
    <g
       id="g15092"
       transform="matrix(0.26458333,0,0,0.26458333,-144.67006,25.810039)">
      <circle
         id="circle15088"
         r="24"
         cy="24"
         cx="24"
         class="d"
         style="fill:#1d1d1d" />
      <path
         id="path15090"
         transform="translate(-540.25,-1208)"
         d="m 576.25,1232 a 12,12 0 0 1 -24,0"
         class="e"
         style="fill:none;stroke:#ffffff;stroke-width:3px;stroke-linejoin:round" />
    </g>
    <path
       id="path15094"
       d="m -119.29038,37.054244 c 2.55875,-4.041925 3.60918,-8.91126 0.8671,-11.054817 -2.74209,-2.143557 -7.12299,-1.149126 -9.72234,1.407293 -2.59934,2.556419 -3.8959,8.972969 -1.35673,10.568267 2.53918,1.595298 7.65322,3.121183 10.21197,-0.920743 z"
       class="c"
       style="fill:#ffffff;stroke-width:0.26463625" />
    <circle
       id="circle15096"
       r="5.8208332"
       cy="32.130646"
       cx="-153.99181"
       class="c"
       style="fill:#ffffff;stroke-width:0.26458332" />
    <path
       id="path15098"
       d="m -153.99181,25.780644 a 6.3499999,6.3499999 0 1 0 6.35,6.35 6.3499999,6.3499999 0 0 0 -6.35,-6.35 z m -1.63406,9.885362 h -1.87114 v -3.300148 h 1.87114 z m 2.56963,0 h -1.8714 v -5.505714 h 1.8714 z m 2.56937,0 h -1.87114 v -6.729677 h 1.87114 z"
       class="d"
       style="fill:#1d1d1d;stroke-width:0.26458332" />
    <circle
       id="circle15100"
       r="5.8208332"
       cy="32.097221"
       cx="-123.80334"
       class="c"
       style="fill:#ffffff;stroke-width:0.26458332" />
    <path
       id="path15102"
       d="m -114.64428,30.246567 c 0.33149,4.144708 2.63792,8.152347 6.66121,8.363198 4.02328,0.210852 7.46213,-2.62746 8.173134,-5.724249 0.711,-3.09679 -2.410784,-8.33571 -5.873304,-8.250902 -3.46253,0.08481 -9.29255,1.467509 -8.96104,5.611953 z"
       class="c"
       style="fill:#ffffff;stroke-width:0.26458332" />
    <g
       id="g15112"
       transform="matrix(0.26458333,0,0,0.26458333,-286.78667,-105.48612)">
      <path
         id="path15104"
         transform="translate(-6.601,-3.866)"
         d="m 619.634,512.693 a 4.2,4.2 0 1 0 5.934,0 4.2,4.2 0 0 0 -5.934,0 z"
         class="d"
         style="fill:#1d1d1d" />
      <path
         id="path15106"
         transform="translate(-9.077,-8.785)"
         d="m 629.539,532.367 a 4.2,4.2 0 1 0 5.932,0 4.2,4.2 0 0 0 -5.932,0 z"
         class="d"
         style="fill:#1d1d1d" />
      <path
         id="path15108"
         d="m 616,496 a 24,24 0 1 0 24,24 24,24 0 0 0 -24,-24 z m -13.9,37.016 v -12.933 h 12.934 v 12.935 z m 7.428,-14.756 v -12.934 h 12.934 v 12.935 z m 7.428,14.756 v -12.933 h 12.934 v 12.935 z"
         class="d"
         style="fill:#1d1d1d" />
      <path
         id="path15110"
         transform="translate(-4.125,-8.785)"
         d="m 609.731,532.367 a 4.2,4.2 0 1 0 5.932,0 4.2,4.2 0 0 0 -5.932,0 z"
         class="d"
         style="fill:#1d1d1d" />
    </g>
    <circle
       id="circle15114"
       r="5.8208332"
       cy="32.097225"
       cx="-109.10903"
       class="c"
       style="fill:#ffffff;stroke-width:0.26458332" />
    <g
       id="g15130"
       transform="matrix(0.26458333,0,0,0.26458333,-399.09235,-105.48612)">
      <path
         id="path15116"
         d="m 1096,496 a 24,24 0 1 0 24,24 24,24 0 0 0 -24,-24 z m -3.157,39.312 a 3.465,3.465 0 0 1 -4.252,-2.642 5.977,5.977 0 0 1 -4.575,-5.283 3.5,3.5 0 0 1 -1.71,-5.146 7.8,7.8 0 0 1 -1.59,-4.741 7.706,7.706 0 0 1 3.05,-6.176 0.736,0.736 0 0 0 0.068,0.1 c 0.521,0.528 0.522,3.367 0,3.895 a 0.75025662,0.75025662 0 1 0 1.068,1.054 c 1.108,-1.121 1.108,-4.88 0,-6 a 0.745,0.745 0 0 0 -0.516,-0.221 3.466,3.466 0 0 1 3.416,-3.046 3.39,3.39 0 0 1 0.931,0.144 6.674,6.674 0 0 1 4.106,-2.34 c 1.891,0 2.384,2.185 2.59,4.093 v 11.625 a 2.865,2.865 0 0 0 -3.487,0.4 0.75,0.75 0 1 0 1.053,1.068 1.36,1.36 0 0 1 1.908,0 0.746,0.746 0 0 0 0.526,0.216 v 0 9.469 a 3.579,3.579 0 0 1 -2.586,3.531 z m 17.394,-11.2 a 3.5,3.5 0 0 1 -2.252,3.275 5.978,5.978 0 0 1 -4.576,5.283 3.464,3.464 0 0 1 -4.251,2.642 3.579,3.579 0 0 1 -2.587,-3.526 V 519.3 a 1.494,1.494 0 0 1 0.461,-0.449 1.551,1.551 0 0 1 1.973,0.07 0.75,0.75 0 1 0 1.053,-1.067 2.865,2.865 0 0 0 -3.487,-0.4 v -8.447 c 0.205,-1.908 1.09,-4.093 2.981,-4.093 1.251,0 3.05,1.348 3.715,2.34 a 3.385,3.385 0 0 1 0.931,-0.144 3.466,3.466 0 0 1 3.416,3.046 0.745,0.745 0 0 0 -0.516,0.221 c -1.108,1.122 -1.108,4.88 0,6 a 0.75025662,0.75025662 0 1 0 1.068,-1.054 c -0.522,-0.528 -0.521,-3.367 0,-3.895 a 0.736,0.736 0 0 0 0.068,-0.1 7.706,7.706 0 0 1 3.05,6.176 7.8,7.8 0 0 1 -1.59,4.741 3.515,3.515 0 0 1 0.543,1.867 z"
         class="d"
         style="fill:#1d1d1d" />
      <path
         id="path15118"
         transform="translate(-5.514,-9.7)"
         d="m 1098.941,534.8 a 0.75,0.75 0 0 0 -0.75,0.75 1.317,1.317 0 1 1 -2.633,0 0.75,0.75 0 0 0 -1.5,0 2.833,2.833 0 0 0 2.348,2.8 1.359,1.359 0 0 1 -0.065,1.826 0.75,0.75 0 1 0 1.067,1.053 8.306,8.306 0 0 1 2.283,-5.675 0.749,0.749 0 0 0 -0.75,-0.754 z"
         class="d"
         style="fill:#1d1d1d" />
      <path
         id="path15120"
         transform="translate(-5.514,-4.23)"
         d="m 1094.808,520.954 a 0.75,0.75 0 0 0 0.75,-0.75 1.332,1.332 0 0 1 1.316,-1.344 v 0 a 0.773,0.773 0 0 0 0.26,-0.052 l 0.051,-0.019 a 0.744,0.744 0 0 0 0.206,-0.14 c 0.012,-0.011 0.021,-0.025 0.032,-0.038 a 0.71,0.71 0 0 0 0.076,-0.088 5.12,5.12 0 0 0 0,-5.266 0.75,0.75 0 0 0 -1.252,0.825 3.661,3.661 0 0 1 0.154,3.327 2.835,2.835 0 0 0 -2.344,2.8 0.75,0.75 0 0 0 0.751,0.745 z"
         class="d"
         style="fill:#1d1d1d" />
      <path
         id="path15122"
         transform="translate(-4.461,-8.713)"
         d="m 1090.067,531.068 a 0.749,0.749 0 0 0 -0.01,1.06 1.364,1.364 0 0 1 0,1.908 0.75,0.75 0 1 0 1.068,1.053 2.869,2.869 0 0 0 0,-4.015 0.75,0.75 0 0 0 -1.061,-0.006 z"
         class="d"
         style="fill:#1d1d1d" />
      <path
         id="path15124"
         transform="translate(-8.537,-9.7)"
         d="m 1111.032,534.8 a 0.749,0.749 0 0 0 -0.75,0.75 1.317,1.317 0 1 1 -2.633,0 0.75,0.75 0 0 0 -1.5,0 8.3,8.3 0 0 1 2.283,5.675 0.75,0.75 0 0 0 1.068,-1.053 1.359,1.359 0 0 1 -0.066,-1.826 2.833,2.833 0 0 0 2.348,-2.8 0.749,0.749 0 0 0 -0.75,-0.746 z"
         class="d"
         style="fill:#1d1d1d" />
      <path
         id="path15126"
         transform="translate(-9.025,-4.23)"
         d="m 1109.925,517.408 a 3.663,3.663 0 0 1 0.154,-3.327 0.75,0.75 0 1 0 -1.252,-0.825 5.121,5.121 0 0 0 0,5.266 0.773,0.773 0 0 0 0.077,0.088 0.365,0.365 0 0 0 0.032,0.038 0.743,0.743 0 0 0 0.206,0.14 l 0.051,0.019 a 0.769,0.769 0 0 0 0.26,0.052 v 0 a 1.332,1.332 0 0 1 1.316,1.344 0.75,0.75 0 0 0 1.5,0 2.835,2.835 0 0 0 -2.344,-2.795 z"
         class="d"
         style="fill:#1d1d1d" />
      <path
         id="path15128"
         transform="translate(-10.767,-8.713)"
         d="m 1116.949,531.068 a 0.75,0.75 0 0 0 -1.061,0.007 2.869,2.869 0 0 0 0,4.015 0.75,0.75 0 0 0 1.068,-1.053 1.364,1.364 0 0 1 0,-1.908 0.749,0.749 0 0 0 -0.01,-1.061 z"
         class="d"
         style="fill:#1d1d1d" />
    </g>
  </g>
</svg>
