<svg xmlns="http://www.w3.org/2000/svg" width="29.944" height="35.29" viewBox="0 0 29.944 35.29"><defs><style>.a{fill:#00edae;}</style></defs><path class="a" d="M1012.135,880.1l-.076-.447a.966.966,0,0,0-.6-.727.8.8,0,0,1-.162-.083l-3.953-2.786a.692.692,0,0,0-.216-.1l-6-1.675c-.147-.059-.913.114-1.068.079l-8.405-1.376a.746.746,0,0,1-.109-.026l-5.259-1.7a1.038,1.038,0,0,0-1.042.26l-1.851,1.9a.546.546,0,0,0-.152.294l-1.037,6.4a.612.612,0,0,0,.658.66h28.614A.611.611,0,0,0,1012.135,880.1Zm-24.482-10.788a.493.493,0,0,0,.377.279l5.212.925a.565.565,0,0,1,.2.077l.809.507a.559.559,0,0,0,.22.079l12.4,1.767a.574.574,0,0,0,.482-.149l1.411-1.4a.388.388,0,0,0,.113-.367l-1.041-4.37a.448.448,0,0,0-.263-.3l-2.027-.9a.6.6,0,0,0-.358-.038l-4.477.89a.583.583,0,0,1-.082.011l-6.468.381-.036,0-6.574.773a.44.44,0,0,0-.418.574Zm5.264-4.46,5.195-.478a1.126,1.126,0,0,0,.156-.026l2.151-.524a.978.978,0,0,1,.108-.021l2.424-.333c.31-.042.564-.191.6-.353l.191-.775a.2.2,0,0,0-.112-.219l-.986-.609a.123.123,0,0,0-.07-.014l-5.96.553a1.118,1.118,0,0,1-.12,0l-4.811-.121h-.065l-3.643.145a.961.961,0,0,0-.675.267l-.712.9a.23.23,0,0,0-.055.126l-.156,2.016c-.015.2.3.319.679.267l5.811-.8Zm-6.432-13.419,2.929,1.434a2.959,2.959,0,0,0,1.54.2l13.593-1.361a4.3,4.3,0,0,0,1.715-.541l1.166-.689c.805-.475,1.083-1.109.682-1.556l-2.631-2.93a1.928,1.928,0,0,0-1.369-.473c-.956-.027-2.381-.046-3.253-.045a4.45,4.45,0,0,0-1.426.246l-4.742,1.642q-.155.053-.317.1l-6.538,1.732A2.6,2.6,0,0,0,986,850.46l-.007.021A.754.754,0,0,0,986.484,851.429Zm9.548,2.209a.74.74,0,0,0-.192.033l-3.7,1.164a.543.543,0,0,0-.37.748.7.7,0,0,0,.671.377l6.389-.291a.751.751,0,0,0,.2-.037l2.428-.812a.576.576,0,0,0,.4-.437l.044-.258a.641.641,0,0,0-.709-.685Zm-11.044,6.705,8.92.006a4.045,4.045,0,0,0,.455-.026l5.082-.025a14.145,14.145,0,0,0,3.741-.524c2.084-.583,4.828-1.475,4.659-1.7l-.174-.237a1.432,1.432,0,0,0-1.053-.3l-4.594-.326c-.153,0-1.709-.272-1.868-.254l-3.941.36c-.444.04-.891.049-1.337.058a14.128,14.128,0,0,0-2.716.318l-6.791,1.473a2.29,2.29,0,0,0-1.452.57C983.678,860.067,984.159,860.344,984.989,860.344Z" transform="translate(-982.198 -845.47)"/></svg>