<svg xmlns="http://www.w3.org/2000/svg" width="14.282" height="54.391" viewBox="0 0 14.282 54.391"><defs><style>.a{fill:#00edae;}</style></defs><path class="a" d="M789.853,4367.3a3.972,3.972,0,0,0,.08-1.033l-1.2-20.6a2.891,2.891,0,0,0-2.856-2.924,3.113,3.113,0,0,0-.522.041,3.728,3.728,0,0,0-2.818,2.973l-6.805,33.344a3.965,3.965,0,0,0-.069,1.08l1.033,13.582a3.068,3.068,0,0,0,1.734,2.635l1.274.561a3.411,3.411,0,0,0,4.314-2.158,3.476,3.476,0,0,0,.143-.609Z" transform="translate(-775.657 -4342.743)"/></svg>