<svg xmlns="http://www.w3.org/2000/svg" width="18.312" height="127.646" viewBox="0 0 18.312 127.646"><defs><style>.a{fill:#00edae;}</style></defs><path class="a" d="M672.468,4420.52l-.138-47.463a22.112,22.112,0,0,0-.148-2.422l-.232-27.039a75.3,75.3,0,0,0-2.859-19.9c-3.141-11.076-7.942-25.66-9.135-24.758l-1.258.932a7.622,7.622,0,0,0-1.575,5.607l-1.647,24.451c0,.814-1.414,9.1-1.315,9.943l1.992,20.965c.22,2.361.278,4.738.333,7.111a75.312,75.312,0,0,0,1.744,14.445L666.2,4418.5a12.184,12.184,0,0,0,3.061,7.715c1.746,1.283,3.21-1.281,3.194-5.7Z" transform="translate(-654.155 -4298.901)"/></svg>