<svg xmlns="http://www.w3.org/2000/svg" width="18.435" height="93.661" viewBox="0 0 18.435 93.661"><defs><style>.a{fill:#fff;}</style></defs><path class="a" d="M774.628,4378.185l.424-27.754a6.01,6.01,0,0,0-.049-.842l-1.55-11.674a5.08,5.08,0,0,1-.049-.586l-.384-13.014c-.046-1.664-.69-3.092-1.527-3.375l-3.992-1.449a1.06,1.06,0,0,0-1.222.467l-3.782,4.871a.645.645,0,0,0-.114.363l-.461,31.846a5.844,5.844,0,0,1-.069.635l-3.373,25.383-.038.344-1.3,19.355a5.1,5.1,0,0,0,1.03,3.723l4.357,4.279a1.208,1.208,0,0,0,.634.361l10.578,1.971c1.049.193,1.857-1.406,1.8-3.439l-.929-31.2Z" transform="translate(-757.102 -4319.444)"/></svg>