<svg xmlns="http://www.w3.org/2000/svg" width="39.501" height="117.146" viewBox="0 0 39.501 117.146"><defs><style>.a{fill:#00edae;}</style></defs><path class="a" d="M631.8,4313.628a2.629,2.629,0,0,0-1.146,2.219L630.194,4344a3.03,3.03,0,0,1-.236,1.117l-1.98,4.68a2.975,2.975,0,0,0-.229,1.223l1.191,66.633a3.057,3.057,0,0,0,1.191,2.408l8.546,6.23a2.068,2.068,0,0,0,2.023.283l22.078-9.16a2.384,2.384,0,0,0,1.355-1.635l3.015-11.41a3.188,3.188,0,0,0-.1-1.914l-8.457-22.768a2.813,2.813,0,0,1-.126-.42L651,4345.616l-.031-.191-9.614-33.883a2.341,2.341,0,0,0-2.688-1.932,2.262,2.262,0,0,0-.68.221Z" transform="translate(-627.747 -4309.579)"/></svg>