<svg xmlns="http://www.w3.org/2000/svg" width="54.805" height="159.724" viewBox="0 0 54.805 159.724"><defs><style>.a{fill:#fff;}</style></defs><path class="a" d="M714.975,4283.131l-2.34.584a5.147,5.147,0,0,0-3.615,3.479,4.175,4.175,0,0,1-.374.893l-13.177,22.1a3.679,3.679,0,0,0-.442,1.188l-6.454,32.514c-.253.8.975,4.795.852,5.635l-3.89,45.146a3.943,3.943,0,0,1-.094.592l-6.885,28.592a5.526,5.526,0,0,0,1.8,5.422l10.831,9.047a2.879,2.879,0,0,0,1.623.689l34.375,2.906a3.258,3.258,0,0,0,3.273-3.24,3.3,3.3,0,0,0-.038-.521l-11.609-151.811a3.247,3.247,0,0,0-3.23-3.268A3.17,3.17,0,0,0,714.975,4283.131Z" transform="translate(-753.066 -4269.678) rotate(-1)"/></svg>