<svg xmlns="http://www.w3.org/2000/svg" width="35.198" height="118.965" viewBox="0 0 35.198 118.965"><defs><style>.a{fill:#fff;}</style></defs><path class="a" d="M733.9,4308.614l-9.252,14.678a15.753,15.753,0,0,0-1.934,8.035l-.531,72.686a22.876,22.876,0,0,0,1.885,9.381l2.982,6.563c2.056,4.527,5.252,6.359,7.845,4.492l17-12.252a10.256,10.256,0,0,0,3.281-6.975c.686-5.041,1.6-12.57,2.089-17.184a23.722,23.722,0,0,0-.491-7.686l-5.989-26.021q-.192-.847-.348-1.732l-5.446-35.574a13.836,13.836,0,0,0-5.666-10.426l-.107-.049a4.014,4.014,0,0,0-5.291,2.049l0,.012Z" transform="translate(-722.177 -4306.207)"/></svg>